<svg xmlns="http://www.w3.org/2000/svg" xmlns:xlink="http://www.w3.org/1999/xlink" viewBox="0 0 261.69 220"><defs><style>.cls-1{fill:#939393;}.cls-2{fill:#8cc63f;}.cls-3{opacity:0.5;fill:url(#linear-gradient);}</style><linearGradient id="linear-gradient" x1="29.41" y1="135.58" x2="45.73" y2="81.65" gradientUnits="userSpaceOnUse"><stop offset="0" stop-color="#8cc63f"/><stop offset="1" stop-color="#333"/></linearGradient></defs><g id="Layer_2" data-name="Layer 2"><g id="Layer_1-2" data-name="Layer 1"><g id="final"><path class="cls-1" d="M261.69,220H196.53l-41.39-57-37.26-52h58.36a30.8,30.8,0,0,0,6.25-.28A28.26,28.26,0,0,0,175.81,55H109.58l-.34-.49-7.07-10.12L71.08,0H176.16a82.6,82.6,0,0,1,24.9,3.82l.55.18h0A82.67,82.67,0,0,1,215.39,155.4Z"/><polygon class="cls-2" points="156.24 220 91.24 220 14.84 110.89 0.21 90 65.21 90 79.84 110.89 156.24 220"/><polygon class="cls-3" points="80.05 111 14.71 111 0 90 65.34 90 80.05 111"/></g></g></g></svg>